<svg width="150" height="150" viewBox="0 0 150 150" fill="none" xmlns="http://www.w3.org/2000/svg">
<path d="M126.051 103.287V145.748H150L126.051 103.287Z" fill="#FAC02D"/>
<path opacity="0.65" d="M145.999 29.7047H121.939C117.327 29.7047 113.604 25.748 113.604 20.8464V12.7263H145.999V29.7047Z" fill="#FAC02D"/>
<path d="M110.076 46.683H87.6552C84.5991 46.683 82.0986 44.055 82.0986 40.7775V25.4822H110.048V46.683H110.076Z" fill="#53A0C1"/>
<path d="M12.8912 27.7854C19.0135 27.7854 23.9766 22.5106 23.9766 16.0039C23.9766 9.49717 19.0135 4.22241 12.8912 4.22241C6.76888 4.22241 1.80579 9.49717 1.80579 16.0039C1.80579 22.5106 6.76888 27.7854 12.8912 27.7854Z" fill="#FAC02D"/>
<path d="M130.024 67.9135H137.664C142.276 67.9135 145.999 63.9568 145.999 59.0552V29.7048H130.024V67.9135Z" fill="#FAC02D"/>
<path d="M53.7043 77.8347V111.791H33.7284L53.7043 77.8347Z" fill="#FAC02D"/>
<path d="M27.9497 113.474V86.3088H4.00085L27.9497 113.474Z" fill="#53A0C1"/>
<path d="M71.5688 111.791C62.9283 111.791 55.927 104.35 55.927 95.1674V86.8701L71.5688 111.791Z" fill="#53A0C1"/>
<path opacity="0.65" d="M110.076 25.4822V46.683H90.1L110.076 25.4822Z" fill="#FAC02D"/>
<path opacity="0.65" d="M90.1 25.4822H110.076V46.683L90.1 25.4822Z" fill="#FAC02D"/>
<path d="M47.9256 72.1654H40.2853C35.6734 72.1654 31.9504 68.2087 31.9504 63.3071V50.9351H47.9256V72.1654Z" fill="#FAC02D"/>
<path opacity="0.65" d="M65.9011 106.476C71.4096 106.476 75.8751 101.73 75.8751 95.876C75.8751 90.0216 71.4096 85.2756 65.9011 85.2756C60.3925 85.2756 55.927 90.0216 55.927 95.876C55.927 101.73 60.3925 106.476 65.9011 106.476Z" fill="#FAC02D"/>
<path opacity="0.65" d="M41.1741 137.244C46.6827 137.244 51.1482 132.498 51.1482 126.644C51.1482 120.789 46.6827 116.043 41.1741 116.043C35.6656 116.043 31.2001 120.789 31.2001 126.644C31.2001 132.498 35.6656 137.244 41.1741 137.244Z" fill="#FAC02D"/>
<path opacity="0.65" d="M77.1254 150L55.927 113.917V135.561L64.4008 150H77.1254Z" fill="#FAC02D"/>
<path d="M30.8668 150C43.4803 150 53.7044 139.134 53.7044 125.728V113.917L30.8668 150Z" fill="#53A0C1"/>
<path opacity="0.65" d="M41.1742 134.38C45.1943 134.38 48.4533 130.916 48.4533 126.644C48.4533 122.371 45.1943 118.907 41.1742 118.907C37.154 118.907 33.895 122.371 33.895 126.644C33.895 130.916 37.154 134.38 41.1742 134.38Z" fill="#FAC02D"/>
<path d="M65.9011 134.38C69.9212 134.38 73.1802 130.916 73.1802 126.644C73.1802 122.371 69.9212 118.907 65.9011 118.907C61.8809 118.907 58.6219 122.371 58.6219 126.644C58.6219 130.916 61.8809 134.38 65.9011 134.38Z" fill="#FAC02D"/>
<path opacity="0.65" d="M41.1742 103.612C45.1943 103.612 48.4533 100.148 48.4533 95.8759C48.4533 91.6033 45.1943 88.1396 41.1742 88.1396C37.154 88.1396 33.895 91.6033 33.895 95.8759C33.895 100.148 37.154 103.612 41.1742 103.612Z" fill="#FAC02D"/>
<path opacity="0.65" d="M138.026 116.014C144.639 116.014 150 110.316 150 103.287C150 96.2588 144.639 90.561 138.026 90.561C131.412 90.561 126.051 96.2588 126.051 103.287C126.051 110.316 131.412 116.014 138.026 116.014Z" fill="#FAC02D"/>
<path opacity="0.65" d="M129.552 112.293C124.884 107.333 124.884 99.2421 129.552 94.2815C134.219 89.3209 141.832 89.3209 146.5 94.2815" fill="#FAC02D"/>
<path d="M31.9504 21.2305H67.7349C70.0408 21.2305 71.9023 23.2088 71.9023 25.6596V29.7049H36.1179C33.8119 29.7049 31.9504 27.7265 31.9504 25.2757V21.2305Z" fill="#FAC02D"/>
<path opacity="0.65" d="M36.1179 16.9786H71.9023V12.9333C71.9023 10.4825 70.0408 8.50415 67.7349 8.50415H31.9504V12.5494C31.9504 15.0002 33.8119 16.9786 36.1179 16.9786Z" fill="#FAC02D"/>
<path d="M82.0986 25.4822H110.048V12.7263H88.3498C84.9047 12.7263 82.0986 15.7086 82.0986 19.37V25.4822Z" fill="#FAC02D"/>
<path d="M102.075 107.539V145.748H79.5981L102.075 107.539Z" fill="#FAC02D"/>
<path opacity="0.65" d="M102.072 111.783V94.8042H82.0962V111.783H102.072Z" fill="#FAC02D"/>
<path d="M82.0986 94.813H102.075V107.539H88.3498C84.9047 107.539 82.0986 104.557 82.0986 100.896V94.813Z" fill="#FAC02D"/>
<path opacity="0.65" d="M47.9256 33.9565H31.9504V50.9349H47.9256V33.9565Z" fill="#FAC02D"/>
<path d="M59.9001 33.9565H47.9257V42.4605H59.9001V33.9565Z" fill="#FAC02D"/>
<path opacity="0.65" d="M59.9001 42.4604H47.9257V50.9644H59.9001V42.4604Z" fill="#FAC02D"/>
<path d="M61.9005 59.439H47.9257V72.1653H61.9005V59.439Z" fill="#53A0C1"/>
<path d="M43.9248 25.4822V42.4605H27.9496L43.9248 25.4822Z" fill="#53A0C1"/>
<path d="M59.9 29.7048V50.9351H75.903L59.9 29.7048Z" fill="#53A0C1"/>
<path d="M27.9496 42.4604V72.1652H0L27.9496 42.4604Z" fill="#53A0C1"/>
<path opacity="0.65" d="M61.9002 72.1654C67.4087 72.1654 71.8743 67.4194 71.8743 61.565C71.8743 55.7106 67.4087 50.9646 61.9002 50.9646C56.3917 50.9646 51.9261 55.7106 51.9261 61.565C51.9261 67.4194 56.3917 72.1654 61.9002 72.1654Z" fill="#FAC02D"/>
<path d="M110.076 0L82.0986 12.7264H110.076V0Z" fill="#53A0C1"/>
<path opacity="0.65" d="M12.8912 47.4211C19.0135 47.4211 23.9766 42.1464 23.9766 35.6396C23.9766 29.1329 19.0135 23.8582 12.8912 23.8582C6.76888 23.8582 1.80579 29.1329 1.80579 35.6396C1.80579 42.1464 6.76888 47.4211 12.8912 47.4211Z" fill="#FAC02D"/>
<path opacity="0.65" d="M110.076 50.9351H90.4613C85.8494 50.9351 82.1265 54.8918 82.1265 59.7933V67.9134H110.076V50.9351V50.9351Z" fill="#FAC02D"/>
<path d="M127.024 0V67.9134H109.187L127.024 0Z" fill="#53A0C1"/>
<path d="M27.9497 111.792V150H4.00085L27.9497 111.792Z" fill="#FAC02D"/>
<path opacity="0.65" d="M11.9745 122.421C16.3936 122.421 19.976 118.614 19.976 113.917C19.976 109.221 16.3936 105.413 11.9745 105.413C7.55541 105.413 3.97302 109.221 3.97302 113.917C3.97302 118.614 7.55541 122.421 11.9745 122.421Z" fill="#FAC02D"/>
<path d="M106.075 150V111.791L122.05 94.813V133.022C122.05 142.382 114.882 150 106.075 150Z" fill="#53A0C1"/>
<path d="M122.05 94.8131L106.075 111.791V94.8131C106.075 85.4528 113.215 77.8347 122.05 77.8347V94.8131Z" fill="#FAC02D"/>
<path opacity="0.65" d="M130.024 67.9429C134.443 67.9429 138.026 64.1356 138.026 59.439C138.026 54.7424 134.443 50.9351 130.024 50.9351C125.605 50.9351 122.023 54.7424 122.023 59.439C122.023 64.1356 125.605 67.9429 130.024 67.9429Z" fill="#FAC02D"/>
<path d="M145.999 12.7263V29.7047H130.024L145.999 12.7263Z" fill="#FAC02D"/>
<path d="M98.0738 107.539V138.957H79.5981L98.0738 107.539Z" fill="#53A0C1"/>
<path d="M92.1002 59.4388C95.4145 59.4388 98.1013 56.5833 98.1013 53.0608C98.1013 49.5384 95.4145 46.6829 92.1002 46.6829C88.7859 46.6829 86.0991 49.5384 86.0991 53.0608C86.0991 56.5833 88.7859 59.4388 92.1002 59.4388Z" fill="#FAC02D"/>
<path d="M47.731 0H39.7295V21.2303H47.731V0Z" fill="#53A0C1"/>
<path d="M59.9 0C65.401 0 69.8741 4.75393 69.8741 10.6004C69.8741 16.4468 65.401 21.2008 59.9 21.2008V0Z" fill="#53A0C1"/>
</svg>
