<svg width="1186" height="425" viewBox="0 0 1186 425" fill="none" xmlns="http://www.w3.org/2000/svg">
<path d="M1016.2 68.8H853.2V66.8H1016.2C1021.5 66.8 1025.8 62.3 1025.8 56.7C1025.8 51.1 1021.5 46.6 1016.2 46.6H358.6C352.3 46.6 347.2 41.1 347.2 34.4C347.2 27.7 352.3 22.2 358.6 22.2H974.1C979.2 22.2 983.4 17.7 983.4 12.1C983.4 6.5 979.2 2 974.1 2V0C980.4 0 985.5 5.5 985.5 12.2C985.5 18.9 980.4 24.4 974.1 24.4H358.6C353.5 24.4 349.3 29 349.3 34.5C349.3 40 353.5 44.6 358.6 44.6H1016.2C1022.6 44.6 1027.8 50.1 1027.8 56.8C1027.9 63.4 1022.7 68.8 1016.2 68.8Z" fill="white"/>
<path d="M1024.9 180.4H676.8V178.4H1024.9C1030 178.4 1034.2 173.8 1034.2 168.3C1034.2 162.7 1030 158.2 1024.9 158.2H548.1C536.1 158.2 526.4 147.7 526.4 134.9C526.4 122 536.1 111.6 548.1 111.6H1174.5C1179.6 111.6 1183.8 107.1 1183.8 101.5C1183.8 95.9 1179.6 91.4 1174.5 91.4H700.5C694.2 91.4 689.1 85.9 689.1 79.2C689.1 72.5 694.2 67 700.5 67H811.3V69H700.5C695.4 69 691.2 73.6 691.2 79.1C691.2 84.6 695.4 89.2 700.5 89.2H1174.9C1181 89.4 1185.8 94.8 1185.8 101.4C1185.8 108 1180.9 113.3 1174.9 113.6H548.1C537.3 113.6 528.4 123.2 528.4 134.9C528.4 146.6 537.2 156.2 548.1 156.2H1024.9C1031.2 156.2 1036.3 161.7 1036.3 168.4C1036.3 175 1031.2 180.4 1024.9 180.4Z" fill="white"/>
<path d="M874.6 245.7H759.3V243.7H874.6C885.4 243.7 894.3 234.1 894.3 222.4C894.3 210.7 885.5 201.1 874.6 201.1H397.5C391.2 201.1 386.1 196 386.1 189.7C386.1 183.4 391.2 178.3 397.5 178.3H595.9V180.3H397.5C392.4 180.3 388.2 184.5 388.2 189.6C388.2 194.7 392.4 198.9 397.5 198.9H874.6C886.6 198.9 896.3 209.4 896.3 222.2C896.3 235.3 886.6 245.7 874.6 245.7Z" fill="white"/>
<path d="M905 335H279.2V333H905C910.1 333 914.3 328.5 914.3 322.9C914.3 317.3 910.1 312.8 905 312.8H406.5C400.1 312.8 394.9 307.3 394.9 300.6C394.9 293.9 400.1 288.4 406.5 288.4H784.8C789.9 288.4 794.1 283.9 794.1 278.3C794.1 272.7 789.9 268.2 784.8 268.2H247.8C241.7 268 236.9 262.6 236.9 256C236.9 249.4 241.8 244.1 247.8 243.8H736.2V245.8H248.2C243.1 245.8 238.9 250.4 238.9 255.9C238.9 261.4 243.1 266 248.2 266H784.8C791.1 266 796.2 271.5 796.2 278.2C796.2 284.9 791.1 290.4 784.8 290.4H406.5C401.2 290.4 396.9 295 396.9 300.5C396.9 306 401.2 310.6 406.5 310.6H905C911.3 310.6 916.4 316.1 916.4 322.8C916.3 329.6 911.2 335 905 335Z" fill="white"/>
<path d="M66.6 379.7H21.7C9.69995 379.7 0 369.2 0 356.4C0 343.6 9.69995 333.1 21.7 333.1H261.8V335.1H21.7C10.9 335.1 2 344.7 2 356.4C2 368.1 10.8 377.7 21.7 377.7H66.6V379.7Z" fill="white"/>
<path d="M1046.5 424.3H358V422.3H1046.5C1057.3 422.3 1066.2 412.7 1066.2 401C1066.2 389.3 1057.4 379.7 1046.5 379.7H188.1V377.7H1046.5C1058.5 377.7 1068.2 388.2 1068.2 401C1068.2 413.8 1058.5 424.3 1046.5 424.3Z" fill="white"/>
<path d="M170.7 377.6H86.8V379.6H170.7V377.6Z" fill="white"/>
</svg>
