<svg width="487" height="425" viewBox="0 0 487 425" fill="none" xmlns="http://www.w3.org/2000/svg">
<g clip-path="url(#clip0_323_7793)">
<g clip-path="url(#clip1_323_7793)">
<path d="M317.3 69H154.3V67H317.3C322.6 67 326.9 62.5 326.9 56.9C326.9 51.3 322.6 46.8 317.3 46.8H-340.3C-346.6 46.8 -351.7 41.3 -351.7 34.6C-351.7 27.9 -346.6 22.4 -340.3 22.4H275.2C280.3 22.4 284.5 17.9 284.5 12.3C284.5 6.7 280.2 2 275.1 2V0C281.4 0 286.5 5.5 286.5 12.2C286.5 18.9 281.4 24.4 275.1 24.4H-340.3C-345.4 24.4 -349.6 29 -349.6 34.5C-349.6 40 -345.4 44.6 -340.3 44.6H317.3C323.7 44.6 328.9 50.1 328.9 56.8C328.9 63.5 323.7 69 317.3 69Z" fill="white"/>
<path d="M325.9 180.6H-22.1001V178.6H326C331.1 178.6 335.3 174 335.3 168.5C335.3 162.9 331.1 158.4 326 158.4H-150.9C-162.9 158.4 -172.6 147.9 -172.6 135.1C-172.6 122.3 -162.9 111.8 -150.9 111.8H475.5C480.6 111.8 484.8 107.3 484.8 101.7C484.8 96.1 480.6 91.6 475.5 91.6H1.49988C-4.80012 91.6 -9.90015 86.1 -9.90015 79.4C-9.90015 72.7 -4.80012 67.2 1.49988 67.2H112.3V69.2H1.59985C-3.50015 69.2 -7.70013 73.8 -7.70013 79.3C-7.70013 84.8 -3.50015 89.4 1.59985 89.4H476C482.1 89.6 486.9 95 486.9 101.6C486.9 108.2 482 113.5 476 113.8H-150.9C-161.7 113.8 -170.6 123.4 -170.6 135.1C-170.6 146.8 -161.8 156.4 -150.9 156.4H325.9C332.2 156.4 337.3 161.9 337.3 168.6C337.3 175.1 332.2 180.6 325.9 180.6Z" fill="white"/>
<path d="M175.6 245.9H60.3001V243.9H175.6C186.4 243.9 195.3 234.3 195.3 222.6C195.3 210.9 186.5 201.3 175.6 201.3H-301.5C-307.8 201.3 -312.9 196.2 -312.9 189.9C-312.9 183.6 -307.8 178.5 -301.5 178.5H-103.1V180.5H-301.5C-306.6 180.5 -310.8 184.7 -310.8 189.8C-310.8 194.9 -306.6 199.1 -301.5 199.1H175.6C187.6 199.1 197.3 209.6 197.3 222.4C197.3 235.4 187.6 245.9 175.6 245.9Z" fill="white"/>
<path d="M206 335.2H-419.8V333.2H206C211.1 333.2 215.3 328.7 215.3 323.1C215.3 317.5 211.1 313 206 313H-292.5C-298.9 313 -304.1 307.5 -304.1 300.8C-304.1 294.1 -298.9 288.6 -292.5 288.6H85.7999C90.8999 288.6 95.0999 284.1 95.0999 278.5C95.0999 272.9 90.8999 268.4 85.7999 268.4H-451.2C-457.3 268.2 -462.1 262.8 -462.1 256.2C-462.1 249.6 -457.2 244.3 -451.2 244H37.1999V246H-450.8C-455.9 246 -460.1 250.6 -460.1 256.1C-460.1 261.6 -455.9 266.2 -450.8 266.2H85.7999C92.0999 266.2 97.2 271.7 97.2 278.4C97.2 285.1 92.0999 290.6 85.7999 290.6H-292.5C-297.8 290.6 -302.1 295.2 -302.1 300.7C-302.1 306.2 -297.8 310.8 -292.5 310.8H206C212.3 310.8 217.4 316.3 217.4 323C217.3 329.7 212.2 335.2 206 335.2Z" fill="white"/>
<path d="M347.5 424.5H-341V422.5H347.5C358.3 422.5 367.2 412.9 367.2 401.2C367.2 389.5 358.4 379.9 347.5 379.9H-510.9V377.9H347.5C359.5 377.9 369.2 388.4 369.2 401.2C369.2 414 359.5 424.5 347.5 424.5Z" fill="white"/>
</g>
</g>
<defs>
<clipPath id="clip0_323_7793">
<rect width="487" height="425" fill="white"/>
</clipPath>
<clipPath id="clip1_323_7793">
<rect width="1185.9" height="424.5" fill="white" transform="translate(-699)"/>
</clipPath>
</defs>
</svg>
