<?xml version="1.0" encoding="utf-8"?>
<!-- Generator: Adobe Illustrator 23.0.1, SVG Export Plug-In . SVG Version: 6.00 Build 0)  -->
<svg version="1.1" id="圖層_1" xmlns="http://www.w3.org/2000/svg" xmlns:xlink="http://www.w3.org/1999/xlink" x="0px" y="0px"
	 viewBox="0 0 32 32" style="enable-background:new 0 0 32 32;" xml:space="preserve">
<style type="text/css">
	.st0{display:none;fill:#F5F1DF;}
	.st1{fill:#549FC0;}
	.st2{fill:#F9BF2C;}
</style>
<rect id="bg_1_" class="st0" width="32" height="32"/>
<g>
	<circle class="st1" cx="16.2" cy="9.8" r="2.5"/>
	<polygon class="st2" points="20.6,3.9 20.6,15 13.6,15 	"/>
	<polygon class="st1" points="11.5,15.6 11.5,6.7 3.7,6.7 	"/>
	<circle class="st2" cx="24.8" cy="9.8" r="3.5"/>
	<path class="st1" d="M26.8,15L26.8,15c-3,0-5.4-2.4-5.4-5.4V6.9L26.8,15z"/>
	<polygon class="st2" points="28.7,27.5 21.3,15.7 21.3,22.8 24.3,27.5 	"/>
	<path class="st1" d="M12.6,27.5L12.6,27.5c4.4,0,7.9-3.6,7.9-7.9v-3.9L12.6,27.5z"/>
	<circle class="st2" cx="16.2" cy="19.9" r="2.5"/>
	<circle class="st1" cx="24.8" cy="19.9" r="2.5"/>
	<polygon class="st2" points="11.5,15 11.5,27.5 3.7,27.5 	"/>
	<circle class="st2" cx="6.4" cy="15.7" r="2.8"/>
</g>
</svg>
