<svg id="圖層_1" data-name="圖層 1" xmlns="http://www.w3.org/2000/svg" viewBox="0 0 100 130"><defs><style>.cls-1{fill:#f9bf2c;opacity:0.65;}.cls-2{fill:#595757;}</style></defs><title>港動淡水網頁title</title><circle class="cls-1" cx="50" cy="64.3" r="50"/><path class="cls-2" d="M42,12.73A26.69,26.69,0,0,0,37.77,10l1.74-2.2a27.45,27.45,0,0,1,4.3,2.43Zm8.81,6.4v1.55c0,1,.23,1.11,1.73,1.11h4.67c1.19,0,1.4-.36,1.55-2.64a8,8,0,0,0,2.44,1c-.34,3.23-1.14,4.14-3.76,4.14H52.28c-3.18,0-4.12-.75-4.12-3.57V15.65a15.54,15.54,0,0,1-2.35,2.26,15.19,15.19,0,0,0-1.45-1.71c-1,2.56-2.15,5.36-3.27,7.74l-2.72-1.78A77.87,77.87,0,0,0,42,14.23l1.82,1.29a14.53,14.53,0,0,0,4.35-5H44.25V7.78h4.2V5.83H45.24V3.09h3.21V.5h3V3.09H55V.5h3V3.09h3.34V5.83H58v2h4.09v2.77h-4A13,13,0,0,0,62.41,15a12.09,12.09,0,0,0-2.15,2.43,13,13,0,0,1-2.41-2.3v4ZM43.27,5.91a30.12,30.12,0,0,0-4.07-2.8L41,1a32.25,32.25,0,0,1,4.12,2.57Zm8,4.64a19.54,19.54,0,0,1-1.09,2.2h6a18.22,18.22,0,0,1-1.12-2.2Zm4.19,4.38H50.81v2h4.63Zm-4-7.15H55V5.83H51.43Z"/><path class="cls-2" d="M61.56,32.18s0,1,0,1.38c-.23,10.59-.44,14.35-1.27,15.54a2.86,2.86,0,0,1-2,1.3,17.62,17.62,0,0,1-3.22.1,7.13,7.13,0,0,0-.9-3c1.14.1,2.12.13,2.61.13a1,1,0,0,0,.89-.44c.54-.7.8-3.86.95-12.23H56.22c-.33,6.94-1.53,12.28-5.88,15.72a10.25,10.25,0,0,0-1.81-2c-3.73.39-7.46.78-10.26,1l-.37-2.59,5.26-.37V45.19H38.6V43h4.56V42H38.71V34h4.45V33h-5.1V30.76h5.1v-1c-1.5.11-3,.18-4.37.21a9.81,9.81,0,0,0-.68-2.18,77.94,77.94,0,0,0,11.17-1.27l1.35,2.31c-1.38.28-3,.52-4.67.7v1.27h5v1.42h2.43c0-1.71,0-3.49,0-5.41h3c0,1.89,0,3.7-.05,5.41Zm-20.42,4.9h2V35.94h-2Zm2,3V38.92h-2v1.17ZM46,46.51c1.48-.1,3-.23,4.51-.36,2-2.8,2.64-6.5,2.82-11.14H50.94V33H46v1h4.59v8H46v1h4.69v2.18H46Zm2-9.43V35.94H46v1.14Zm-2,1.84v1.17h2V38.92Z"/><path class="cls-2" d="M50,61.05a3.32,3.32,0,1,1-3.31,3.31A3.34,3.34,0,0,1,50,61.05Z"/><path class="cls-2" d="M46.35,97.45H41.56v2.28h-2.8V79.83h7.59ZM41.56,82.58v4.56h2V82.58Zm2,12.1V89.83h-2v4.85Zm16.17,7.69a55.45,55.45,0,0,0-5-6.81,12.48,12.48,0,0,1-6,6.81,12.57,12.57,0,0,0-2-2.28A10.56,10.56,0,0,0,52.47,93h-5.6v-2.9h1.35V82.32H53V78.2h2.85v4.12h4.79v7.77h1.12V93H55.44a13.67,13.67,0,0,1-.67,2.51l2.1-1.6a64.41,64.41,0,0,1,5.18,6.53ZM52.93,90.09c0-.8.08-1.61.08-2.41V85.17H50.88v4.92Zm2.93-4.92v2.51c0,.8,0,1.61,0,2.41h2V85.17Z"/><path class="cls-2" d="M47.78,121.91l-9.41,2.74-.78-2.9c1-.23,2.31-.57,3.71-.93v-5.21H38.42v-2.82H41.3v-4.51H38.19v-2.85h9.07v2.85h-3v4.51H47v2.82H44.28V120l3.08-.86Zm11.5,3.6c.47,0,.57-.42.62-3a7.86,7.86,0,0,0,2.57,1.14c-.26,3.55-.94,4.51-2.85,4.51H57.67c-2.38,0-2.9-.88-2.9-3.5v-5.08H53.19c-.47,4.23-1.66,7.23-7.18,8.86a8.83,8.83,0,0,0-1.71-2.53c4.69-1.17,5.52-3.3,5.86-6.33H48.27V105.06H60.91v14.51H57.73v5.08c0,.75.05.86.49.86Zm-8.14-16.33h6.77v-1.6H51.14Zm0,3.94h6.77v-1.6H51.14Zm0,3.94h6.77v-1.61H51.14Z"/></svg>