<svg id="圖層_1" data-name="圖層 1" xmlns="http://www.w3.org/2000/svg" viewBox="0 0 100 130"><defs><style>.cls-1{fill:#f9bf2c;opacity:0.8;}.cls-2{fill:#fff;}</style></defs><title>港動淡水網頁title</title><circle class="cls-1" cx="50.08" cy="64.91" r="49.92"/><path class="cls-2" d="M41.45,13.43a26.44,26.44,0,0,0-4.21-2.69L39,8.54A25.82,25.82,0,0,1,43.26,11Zm8.8,6.38v1.56c0,1,.23,1.11,1.73,1.11h4.66c1.19,0,1.39-.36,1.55-2.64a7.85,7.85,0,0,0,2.43,1C60.28,24.06,59.48,25,56.87,25H51.72c-3.18,0-4.11-.75-4.11-3.57v-5a16.48,16.48,0,0,1-2.35,2.25,15.19,15.19,0,0,0-1.45-1.71c-1,2.56-2.15,5.36-3.26,7.73l-2.72-1.78a76.35,76.35,0,0,0,3.65-7.91l1.81,1.29a14.53,14.53,0,0,0,4.35-5H43.7V8.49h4.19V6.55h-3.2V3.8h3.2V1.22h3V3.8h3.57V1.22h3V3.8H60.8V6.55H57.46V8.49h4.09v2.76h-4a12.9,12.9,0,0,0,4.29,4.45,12,12,0,0,0-2.14,2.43,12.08,12.08,0,0,1-2.41-2.3v4ZM42.72,6.62a29.09,29.09,0,0,0-4.06-2.79L40.5,1.68a32.09,32.09,0,0,1,4.11,2.56Zm8,4.63a19.54,19.54,0,0,1-1.09,2.2h6a19.79,19.79,0,0,1-1.12-2.2Zm4.19,4.37H50.25v2h4.63Zm-4-7.13h3.57V6.55H50.87Z"/><path class="cls-2" d="M61,32.85s0,1,0,1.37c-.23,10.58-.43,14.33-1.26,15.52a2.9,2.9,0,0,1-2,1.29,17.26,17.26,0,0,1-3.2.11,7.11,7.11,0,0,0-.91-3c1.14.1,2.12.13,2.61.13a1,1,0,0,0,.88-.44c.55-.7.81-3.86,1-12.21H55.65c-.33,6.93-1.52,12.26-5.87,15.7a10,10,0,0,0-1.81-2c-3.72.38-7.45.77-10.24,1l-.36-2.58c1.45-.11,3.26-.24,5.25-.36V45.83H38.07V43.66h4.55v-1H38.17v-8h4.45v-1h-5.1V31.43h5.1v-1c-1.5.11-3,.18-4.37.21a9.57,9.57,0,0,0-.68-2.17,80.6,80.6,0,0,0,11.15-1.27l1.35,2.3c-1.37.29-3,.52-4.66.7v1.27h5v1.42h2.43c0-1.71,0-3.49,0-5.41h3c0,1.89,0,3.7-.05,5.41ZM40.6,37.74h2V36.6h-2Zm2,3V39.57h-2v1.17Zm2.79,6.41c1.47-.1,3-.23,4.5-.36,2-2.79,2.64-6.49,2.82-11.12H50.38v-2h-5v1H50v8H45.41v1h4.68v2.17H45.41Zm2-9.41V36.6h-2v1.14Zm-2,1.83v1.17h2V39.57Z"/><path class="cls-2" d="M49.45,61.66A3.31,3.31,0,1,1,46.13,65,3.33,3.33,0,0,1,49.45,61.66Z"/><path class="cls-2" d="M44.14,97c1-.26,2-.54,3-.85l.34,2.61c-3.29,1.11-6.8,2.22-9.49,3.08l-.68-2.9,1-.26V90.08h2.25v8l1.14-.31V88.22H38.27V79.74h8.41v8.48H44.14V91h2.64v2.66H44.14ZM40.81,85.61H44V82.38H40.81Zm12-3.36c-.65,4.24-2.22,7.19-4.84,8.84a10.67,10.67,0,0,0-1.63-2,8.48,8.48,0,0,0,3.26-4.65h-2.4V81.86h3.39l.49-.08Zm-4.58,9.67H60.36v10.89h-3v-.73H51.13v.86H48.28ZM61.5,82.66c-1.19,1-2.36,2-3.39,2.74A9.12,9.12,0,0,0,62,88.51,12.06,12.06,0,0,0,60.08,91a11.15,11.15,0,0,1-4.35-4.88v2.66c0,1.27-.21,1.94-1,2.35a7.18,7.18,0,0,1-3.28.47A10.48,10.48,0,0,0,50.66,89c.83,0,1.66,0,1.92,0s.36-.07.36-.36v-9.9h2.79v1.68a19.57,19.57,0,0,0,1.06,2.84,20.51,20.51,0,0,0,2.28-2.56ZM51.13,94.4v1.45h6.26V94.4Zm6.26,5.2V98H51.13V99.6Z"/><path class="cls-2" d="M47.14,111.32H37.55v-2.43h4.08a25.79,25.79,0,0,0-1.52-3.26l2.2-1.11A26.37,26.37,0,0,1,44,108l-1.58.93h4.68Zm-8.56,3.49v-2.33h7.48v2.33Zm7.53,3.47H38.58V116h7.53Zm7.81-6.47c-.05,1-.1,2-.16,3h6.65s0,.88,0,1.26c-.31,7.37-.65,10.25-1.43,11.25a2.65,2.65,0,0,1-2,1.14,19.62,19.62,0,0,1-3.21.08,7.88,7.88,0,0,0-.87-2.92c1.13.1,2.19.13,2.69.13a1,1,0,0,0,.9-.39c.47-.52.72-2.59,1-7.68h-4c-.59,4.47-2,8.43-5.48,11.12a8,8,0,0,0-1.92-2.15v.67H41v1.09H38.61v-8.92h7.47v7.11c4.43-3.28,4.79-8.85,4.94-14.82h-3.2v-2.9h5.69a28.11,28.11,0,0,0-1-3.39l2.64-.72a24,24,0,0,1,1.32,4.11h4.91v2.9ZM43.65,122H41v2.9h2.66Z"/></svg>