<svg width="88" height="83" viewBox="0 0 88 83" fill="none" xmlns="http://www.w3.org/2000/svg">
<g clip-path="url(#clip0_314_9670)">
<path d="M74 57V80.5H88L74 57Z" fill="#FAC02D"/>
<path opacity="0.65" d="M85.7 16.4H74.7C70.3 16.4 66.7 12.8 66.7 8.4V7H85.7V16.4Z" fill="#FAC02D"/>
<path d="M7.6001 15.3C11.1899 15.3 14.1001 12.3899 14.1001 8.80005C14.1001 5.2102 11.1899 2.30005 7.6001 2.30005C4.01025 2.30005 1.1001 5.2102 1.1001 8.80005C1.1001 12.3899 4.01025 15.3 7.6001 15.3Z" fill="#FAC02D"/>
<path d="M76.3 37.5H77.7C82.1 37.5 85.7 33.9 85.7 29.5V16.4H76.3V37.5Z" fill="#FAC02D"/>
<path d="M31.5 43V61.7H19.8L31.5 43Z" fill="#FAC02D"/>
<path d="M16.4 62.7V47.7H2.30005L16.4 62.7Z" fill="#53A0C1"/>
<path d="M42 61.7C36.9 61.7 32.8 57.6 32.8 52.5V48L42 61.7Z" fill="#53A0C1"/>
<path d="M28.1 39.8H26.7C22.3 39.8 18.7 36.2 18.7 31.8V28.1H28.1V39.8Z" fill="#FAC02D"/>
<path opacity="0.65" d="M38.7001 58.8C41.9585 58.8 44.6 56.1585 44.6 52.9C44.6 49.6415 41.9585 47 38.7001 47C35.4416 47 32.8 49.6415 32.8 52.9C32.8 56.1585 35.4416 58.8 38.7001 58.8Z" fill="#FAC02D"/>
<path opacity="0.65" d="M24.2001 75.8C27.4585 75.8 30.1 73.1585 30.1 69.9C30.1 66.6415 27.4585 64 24.2001 64C20.9416 64 18.3 66.6415 18.3 69.9C18.3 73.1585 20.9416 75.8 24.2001 75.8Z" fill="#FAC02D"/>
<path opacity="0.65" d="M45.3 82.8L32.8 62.9V74.8L37.8 82.8H45.3Z" fill="#FAC02D"/>
<path d="M18.1001 82.8C25.5001 82.8 31.5001 76.8 31.5001 69.4V62.9L18.1001 82.8Z" fill="#53A0C1"/>
<path opacity="0.65" d="M24.1999 74.2C26.5747 74.2 28.4999 72.2748 28.4999 69.9C28.4999 67.5252 26.5747 65.6 24.1999 65.6C21.8251 65.6 19.8999 67.5252 19.8999 69.9C19.8999 72.2748 21.8251 74.2 24.1999 74.2Z" fill="#FAC02D"/>
<path d="M38.6999 74.2C41.0747 74.2 42.9999 72.2748 42.9999 69.9C42.9999 67.5252 41.0747 65.6 38.6999 65.6C36.3251 65.6 34.3999 67.5252 34.3999 69.9C34.3999 72.2748 36.3251 74.2 38.6999 74.2Z" fill="#FAC02D"/>
<path opacity="0.65" d="M24.1999 57.2C26.5747 57.2 28.4999 55.2748 28.4999 52.9C28.4999 50.5252 26.5747 48.6 24.1999 48.6C21.8251 48.6 19.8999 50.5252 19.8999 52.9C19.8999 55.2748 21.8251 57.2 24.1999 57.2Z" fill="#FAC02D"/>
<path opacity="0.65" d="M81 64C84.866 64 88 60.866 88 57C88 53.134 84.866 50 81 50C77.134 50 74 53.134 74 57C74 60.866 77.134 64 81 64Z" fill="#FAC02D"/>
<path opacity="0.65" d="M76.0001 62C73.3001 59.3 73.3001 54.8 76.0001 52.1C78.7001 49.4 83.2001 49.4 85.9001 52.1" fill="#FAC02D"/>
<path d="M18.7 11.7H38.0999C40.2999 11.7 42.0999 13.5 42.0999 15.7V16.4H22.7C20.5 16.4 18.7 14.6 18.7 12.4V11.7Z" fill="#FAC02D"/>
<path opacity="0.65" d="M22.7 9.39995H42.0999V8.69995C42.0999 6.49995 40.2999 4.69995 38.0999 4.69995H18.7V5.39995C18.7 7.59995 20.5 9.39995 22.7 9.39995Z" fill="#FAC02D"/>
<path d="M48.2001 12.8H65.5001V12C65.5001 9.29998 63.3001 7.09998 60.6001 7.09998H53.0001C50.3001 7.09998 48.1001 9.29998 48.1001 12V12.8H48.2001Z" fill="#FAC02D"/>
<path d="M59.9 59.4V80.5H46.7L59.9 59.4Z" fill="#FAC02D"/>
<path opacity="0.65" d="M59.8645 61.6947V52.2947H48.1645V61.6947H59.8645Z" fill="#FAC02D"/>
<path d="M48.2 52.3H59.9V59.3H54.2C50.9 59.3 48.2 56.6 48.2 53.3V52.3Z" fill="#FAC02D"/>
<path opacity="0.65" d="M28.1 18.7H18.7V28.1H28.1V18.7Z" fill="#FAC02D"/>
<path d="M34.6001 18.7H28.1001V23.4H34.6001V18.7Z" fill="#FAC02D"/>
<path opacity="0.65" d="M34.6001 23.4H28.1001V28.1H34.6001V23.4Z" fill="#FAC02D"/>
<path d="M36.3001 32.8H28.1001V39.8H36.3001V32.8Z" fill="#53A0C1"/>
<path d="M25.7999 14.1V23.4H16.3999L25.7999 14.1Z" fill="#53A0C1"/>
<path d="M34.6001 16.4V28.1H44.0001L34.6001 16.4Z" fill="#53A0C1"/>
<path d="M16.4 23.4V39.8H0L16.4 23.4Z" fill="#53A0C1"/>
<path opacity="0.65" d="M36.2999 39.9C39.5584 39.9 42.1999 37.2585 42.1999 34C42.1999 30.7415 39.5584 28.1 36.2999 28.1C33.0414 28.1 30.3999 30.7415 30.3999 34C30.3999 37.2585 33.0414 39.9 36.2999 39.9Z" fill="#FAC02D"/>
<path d="M63.2001 0L49.1001 6.2H63.2001V0Z" fill="#53A0C1"/>
<path opacity="0.65" d="M7.6001 26.2C11.1899 26.2 14.1001 23.2898 14.1001 19.7C14.1001 16.1101 11.1899 13.2 7.6001 13.2C4.01025 13.2 1.1001 16.1101 1.1001 19.7C1.1001 23.2898 4.01025 26.2 7.6001 26.2Z" fill="#FAC02D"/>
<path opacity="0.65" d="M65.5 28.1H56.2C51.8 28.1 48.2 31.7 48.2 36.1V37.5H65.5V28.1Z" fill="#FAC02D"/>
<path d="M74.5001 0V37.5H64.1001L74.5001 0Z" fill="#53A0C1"/>
<path d="M16.4 61.7V82.8H2.30005L16.4 61.7Z" fill="#FAC02D"/>
<path opacity="0.65" d="M7.00005 67.5999C9.59579 67.5999 11.7 65.4957 11.7 62.9C11.7 60.3042 9.59579 58.2 7.00005 58.2C4.40431 58.2 2.30005 60.3042 2.30005 62.9C2.30005 65.4957 4.40431 67.5999 7.00005 67.5999Z" fill="#FAC02D"/>
<path d="M62.2 81.4V60.3L71.5999 50.9V72C71.5999 77.2 67.4 81.4 62.2 81.4Z" fill="#53A0C1"/>
<path d="M71.5999 51L62.2 60.4V52.3C62.2 47.1 66.3999 42.9 71.5999 42.9V51Z" fill="#FAC02D"/>
<path opacity="0.65" d="M76.3001 37.5C78.8958 37.5 81.0001 35.3957 81.0001 32.8C81.0001 30.2042 78.8958 28.1 76.3001 28.1C73.7044 28.1 71.6001 30.2042 71.6001 32.8C71.6001 35.3957 73.7044 37.5 76.3001 37.5Z" fill="#FAC02D"/>
<path d="M85.7 7V16.4H76.3L85.7 7Z" fill="#FAC02D"/>
<path d="M57.5999 59.4V76.7H46.7L57.5999 59.4Z" fill="#53A0C1"/>
<path d="M28 0H23.3V11.7H28V0Z" fill="#53A0C1"/>
<path d="M34.6001 0C37.8001 0 40.5001 2.6 40.5001 5.9C40.5001 9.2 37.9001 11.8 34.6001 11.8V0Z" fill="#53A0C1"/>
<path opacity="0.65" d="M65.5001 13.5H55.1001V19.6H65.5001V13.5Z" fill="#FAC02D"/>
<path d="M60.3001 26.6H55.1001V20.5H65.5001V21.4C65.5001 24.2 63.2001 26.6 60.3001 26.6Z" fill="#53A0C1"/>
<path d="M48.2 19.7V13.6H54.2999C54.2999 16.9 51.6 19.6 48.2 19.7Z" fill="#53A0C1"/>
<path opacity="0.65" d="M54.2999 26.6C50.8999 26.6 48.2 23.9 48.2 20.5H54.2999V26.6Z" fill="#FAC02D"/>
<path d="M54 32.8C55.933 32.8 57.5 31.233 57.5 29.3C57.5 27.3671 55.933 25.8 54 25.8C52.067 25.8 50.5 27.3671 50.5 29.3C50.5 31.233 52.067 32.8 54 32.8Z" fill="#FAC02D"/>
</g>
<defs>
<clipPath id="clip0_314_9670">
<rect width="88" height="82.8" fill="white"/>
</clipPath>
</defs>
</svg>
