<svg width="119" height="83" viewBox="0 0 119 83" fill="none" xmlns="http://www.w3.org/2000/svg">
<g clip-path="url(#clip0_324_7810)">
<path d="M41.2 50.1001C39.9 50.1001 39.3 48.6001 40.1 47.6001C42.4 45.1001 46.9 41.5001 53.5 41.5001C63.7 41.5001 63 45.8001 73.1 45.8001C83.2 45.8001 85.8 36.1001 99 36.1001C108.8 36.1001 115.8 43.8001 118.8 47.7001C119.5 48.7001 118.8 50.0001 117.6 50.0001H41.2V50.1001Z" fill="#E6E4CF"/>
<path d="M93.1001 57.2V80.6999H107.2L93.1001 57.2Z" fill="#FAC02D"/>
<path opacity="0.65" d="M104.9 16.4H93.7998C89.3998 16.4 85.7998 12.8 85.7998 8.4V7H104.9V16.4Z" fill="#FAC02D"/>
<path d="M26.6001 15.3999C30.1899 15.3999 33.1001 12.4898 33.1001 8.8999C33.1001 5.31005 30.1899 2.3999 26.6001 2.3999C23.0102 2.3999 20.1001 5.31005 20.1001 8.8999C20.1001 12.4898 23.0102 15.3999 26.6001 15.3999Z" fill="#FAC02D"/>
<path d="M95.5 37.5999H96.9C101.3 37.5999 104.9 33.9999 104.9 29.5999V16.3999H95.5V37.5999Z" fill="#FAC02D"/>
<path d="M50.5998 43.1001V61.9001H38.7998L50.5998 43.1001Z" fill="#FAC02D"/>
<path d="M35.3998 62.8V47.8H21.2998L35.3998 62.8Z" fill="#53A0C1"/>
<path d="M61.0999 61.9001C55.9999 61.9001 51.8999 57.8001 51.8999 52.7001V48.1001L61.0999 61.9001Z" fill="#53A0C1"/>
<path d="M47.1998 39.9H45.7998C41.3998 39.9 37.7998 36.3 37.7998 31.9V28.2H47.1998V39.9V39.9Z" fill="#FAC02D"/>
<path opacity="0.65" d="M57.7999 59C61.0584 59 63.6999 56.3584 63.6999 53.0999C63.6999 49.8415 61.0584 47.2 57.7999 47.2C54.5414 47.2 51.8999 49.8415 51.8999 53.0999C51.8999 56.3584 54.5414 59 57.7999 59Z" fill="#FAC02D"/>
<path opacity="0.65" d="M43.1998 76C46.4583 76 49.0998 73.3584 49.0998 70.1C49.0998 66.8415 46.4583 64.2 43.1998 64.2C39.9413 64.2 37.2998 66.8415 37.2998 70.1C37.2998 73.3584 39.9413 76 43.1998 76Z" fill="#FAC02D"/>
<path opacity="0.65" d="M64.3999 83L51.8999 63V75L56.8999 83H64.3999Z" fill="#FAC02D"/>
<path d="M37.2002 83C44.6002 83 50.6002 77 50.6002 69.6V63L37.2002 83Z" fill="#53A0C1"/>
<path opacity="0.65" d="M43.1999 74.4C45.5747 74.4 47.4999 72.4749 47.4999 70.1C47.4999 67.7252 45.5747 65.8 43.1999 65.8C40.8251 65.8 38.8999 67.7252 38.8999 70.1C38.8999 72.4749 40.8251 74.4 43.1999 74.4Z" fill="#FAC02D"/>
<path d="M57.8 74.4C60.1748 74.4 62.1 72.4749 62.1 70.1C62.1 67.7252 60.1748 65.8 57.8 65.8C55.4252 65.8 53.5 67.7252 53.5 70.1C53.5 72.4749 55.4252 74.4 57.8 74.4Z" fill="#FAC02D"/>
<path opacity="0.65" d="M43.1999 57.4001C45.5747 57.4001 47.4999 55.4749 47.4999 53.1C47.4999 50.7252 45.5747 48.8 43.1999 48.8C40.8251 48.8 38.8999 50.7252 38.8999 53.1C38.8999 55.4749 40.8251 57.4001 43.1999 57.4001Z" fill="#FAC02D"/>
<path opacity="0.65" d="M100.2 64.1999C104.066 64.1999 107.2 61.0659 107.2 57.2C107.2 53.334 104.066 50.2 100.2 50.2C96.3342 50.2 93.2002 53.334 93.2002 57.2C93.2002 61.0659 96.3342 64.1999 100.2 64.1999Z" fill="#FAC02D"/>
<path opacity="0.65" d="M95.2001 62.2001C92.4001 59.4001 92.4001 55.0001 95.2001 52.2001C98.0001 49.4001 102.4 49.4001 105.2 52.2001" fill="#FAC02D"/>
<path d="M37.7998 11.7H57.2998C59.4998 11.7 61.2998 13.5 61.2998 15.7V16.4H41.7998C39.5998 16.4 37.7998 14.6 37.7998 12.4V11.7Z" fill="#FAC02D"/>
<path opacity="0.65" d="M41.7998 9.39995H61.2998V8.69995C61.2998 6.49995 59.4998 4.69995 57.2998 4.69995H37.7998V5.39995C37.7998 7.59995 39.5998 9.39995 41.7998 9.39995Z" fill="#FAC02D"/>
<path d="M67.2998 12.8H84.6998V11.9C84.6998 9.2 82.4998 7 79.7998 7H72.1998C69.4998 7 67.2998 9.2 67.2998 11.9V12.8V12.8Z" fill="#FAC02D"/>
<path d="M78.9998 59.5V80.7H65.7998L78.9998 59.5Z" fill="#FAC02D"/>
<path opacity="0.65" d="M79.0479 61.9024V52.5024H67.3479V61.9024H79.0479Z" fill="#FAC02D"/>
<path d="M67.2998 52.5H78.9998V59.5H73.2998C69.9998 59.5 67.2998 56.8 67.2998 53.5V52.5Z" fill="#FAC02D"/>
<path opacity="0.65" d="M47.1998 18.8H37.7998V28.2001H47.1998V18.8Z" fill="#FAC02D"/>
<path d="M53.7002 18.8H47.2002V23.5H53.7002V18.8Z" fill="#FAC02D"/>
<path opacity="0.65" d="M53.7002 23.5H47.2002V28.2H53.7002V23.5Z" fill="#FAC02D"/>
<path d="M55.4002 32.8999H47.2002V39.8999H55.4002V32.8999Z" fill="#53A0C1"/>
<path d="M44.7999 14.1001V23.5001H35.3999L44.7999 14.1001Z" fill="#53A0C1"/>
<path d="M53.7002 16.3999V28.1999H63.1002L53.7002 16.3999Z" fill="#53A0C1"/>
<path d="M35.4 23.5V39.9H19L35.4 23.5Z" fill="#53A0C1"/>
<path opacity="0.65" d="M55.4 40C58.6585 40 61.3 37.3584 61.3 34.0999C61.3 30.8415 58.6585 28.2 55.4 28.2C52.1415 28.2 49.5 30.8415 49.5 34.0999C49.5 37.3584 52.1415 40 55.4 40Z" fill="#FAC02D"/>
<path d="M82.3002 0L68.2002 6.3H82.3002V0Z" fill="#53A0C1"/>
<path opacity="0.65" d="M26.6001 26.2C30.1899 26.2 33.1001 23.2898 33.1001 19.7C33.1001 16.1101 30.1899 13.2 26.6001 13.2C23.0102 13.2 20.1001 16.1101 20.1001 19.7C20.1001 23.2898 23.0102 26.2 26.6001 26.2Z" fill="#FAC02D"/>
<path opacity="0.65" d="M84.6998 28.2H75.2998C70.8998 28.2 67.2998 31.8 67.2998 36.2V37.5999H84.6998V28.2Z" fill="#FAC02D"/>
<path d="M93.7002 0V37.6H83.2002L93.7002 0Z" fill="#53A0C1"/>
<path d="M35.3998 61.8999V82.9999H21.2998L35.3998 61.8999Z" fill="#FAC02D"/>
<path opacity="0.65" d="M25.9998 67.7C28.5955 67.7 30.6998 65.5958 30.6998 63C30.6998 60.4043 28.5955 58.3 25.9998 58.3C23.4041 58.3 21.2998 60.4043 21.2998 63C21.2998 65.5958 23.4041 67.7 25.9998 67.7Z" fill="#FAC02D"/>
<path d="M81.3999 81.6001V60.5001L90.7999 51.1001V72.2001C90.7999 77.4001 86.5999 81.6001 81.3999 81.6001Z" fill="#53A0C1"/>
<path d="M90.7999 51.2001L81.3999 60.6001V52.5001C81.3999 47.3001 85.5999 43.1001 90.7999 43.1001V51.2001Z" fill="#FAC02D"/>
<path opacity="0.65" d="M95.4998 37.5999C98.0955 37.5999 100.2 35.4957 100.2 32.9C100.2 30.3042 98.0955 28.2 95.4998 28.2C92.9041 28.2 90.7998 30.3042 90.7998 32.9C90.7998 35.4957 92.9041 37.5999 95.4998 37.5999Z" fill="#FAC02D"/>
<path d="M104.9 7V16.4H95.5L104.9 7Z" fill="#FAC02D"/>
<path d="M76.6998 59.5V76.9H65.7998L76.6998 59.5Z" fill="#53A0C1"/>
<path d="M47.0999 0H42.3999V11.7H47.0999V0Z" fill="#53A0C1"/>
<path d="M53.7002 0C56.9002 0 59.6002 2.6 59.6002 5.9C59.6002 9.2 57.0002 11.8 53.7002 11.8V0Z" fill="#53A0C1"/>
<path opacity="0.65" d="M84.7002 13.6001H74.2002V19.7001H84.7002V13.6001Z" fill="#FAC02D"/>
<path d="M79.4002 26.6H74.2002V20.5H84.7002V21.4C84.7002 24.3 82.3002 26.6 79.4002 26.6Z" fill="#53A0C1"/>
<path d="M67.2998 19.7001V13.6001H73.3998C73.3998 16.9001 70.7998 19.7001 67.2998 19.7001Z" fill="#53A0C1"/>
<path opacity="0.65" d="M73.3998 26.6C69.9998 26.6 67.2998 23.8 67.2998 20.5H73.3998V26.6Z" fill="#FAC02D"/>
<path d="M73.2002 32.8999C75.1332 32.8999 76.7002 31.3329 76.7002 29.3999C76.7002 27.4669 75.1332 25.8999 73.2002 25.8999C71.2672 25.8999 69.7002 27.4669 69.7002 29.3999C69.7002 31.3329 71.2672 32.8999 73.2002 32.8999Z" fill="#FAC02D"/>
</g>
<defs>
<clipPath id="clip0_324_7810">
<rect width="119" height="83" fill="white"/>
</clipPath>
</defs>
</svg>
