<svg id="圖層_1" data-name="圖層 1" xmlns="http://www.w3.org/2000/svg" viewBox="0 0 100 130"><defs><style>.cls-1{fill:#f9bf2c;opacity:0.65;}.cls-2{fill:#595757;}</style></defs><title>港動淡水網頁title</title><circle class="cls-1" cx="50" cy="65" r="50"/><path class="cls-2" d="M42,12.61a27.42,27.42,0,0,0-4.23-2.69l1.74-2.2a25.93,25.93,0,0,1,4.3,2.43ZM50.81,19v1.56c0,1,.23,1.11,1.73,1.11h4.67c1.19,0,1.39-.36,1.55-2.64a8,8,0,0,0,2.44,1c-.34,3.24-1.14,4.15-3.76,4.15H52.28c-3.18,0-4.12-.75-4.12-3.58V15.54a15.94,15.94,0,0,1-2.35,2.25,14.34,14.34,0,0,0-1.46-1.71c-1,2.57-2.15,5.37-3.26,7.75L38.37,22A76.61,76.61,0,0,0,42,14.12l1.82,1.29a14.64,14.64,0,0,0,4.35-5H44.25V7.66h4.2V5.72H45.24V3h3.21V.38h3V3H55V.38h3V3h3.34V5.72H58V7.66h4.09v2.78h-4a13,13,0,0,0,4.3,4.45,12.15,12.15,0,0,0-2.15,2.44A12.72,12.72,0,0,1,57.85,15v4ZM43.27,5.8A29.23,29.23,0,0,0,39.2,3L41,.85a31.17,31.17,0,0,1,4.12,2.57Zm8,4.64a20.42,20.42,0,0,1-1.09,2.2h6a19,19,0,0,1-1.12-2.2Zm4.19,4.37H50.81v2h4.63Zm-4-7.15H55V5.72H51.43Z"/><path class="cls-2" d="M61.56,32.07s0,1,0,1.37C61.3,44,61.09,47.79,60.26,49a2.88,2.88,0,0,1-2,1.29,17.49,17.49,0,0,1-3.22.11,7.32,7.32,0,0,0-.9-3c1.14.11,2.12.13,2.61.13a.93.93,0,0,0,.88-.44c.55-.7.81-3.86,1-12.23H56.22c-.34,7-1.53,12.28-5.88,15.73a10.29,10.29,0,0,0-1.81-2c-3.73.39-7.47.78-10.26,1L37.9,47l5.26-.36V45.07H38.6V42.9h4.56v-1H38.71v-8h4.45v-1h-5.1V30.64h5.1v-1c-1.5.1-3,.18-4.38.2a9.07,9.07,0,0,0-.67-2.17,80.92,80.92,0,0,0,11.17-1.27l1.34,2.3c-1.37.29-3,.52-4.66.7v1.27h5v1.43h2.43c0-1.71,0-3.5,0-5.42h3c0,1.89,0,3.71-.05,5.42ZM41.14,37h2V35.82h-2Zm2,3V38.8h-2V40ZM46,46.4c1.48-.11,3-.24,4.51-.37,2-2.8,2.64-6.5,2.82-11.14H50.94v-2H46v1h4.59v8H46v1h4.69v2.17H46ZM48,37V35.82H46V37ZM46,38.8V40h2V38.8Z"/><path class="cls-2" d="M50,60.93a3.32,3.32,0,1,1-3.31,3.31A3.34,3.34,0,0,1,50,60.93Z"/><path class="cls-2" d="M45.18,90.15a30.68,30.68,0,0,1-2,6.74c.42.26.91.62,1.61,1C46.53,99,49,99.14,52,99.14a88.57,88.57,0,0,0,10.49-.67,11.42,11.42,0,0,0-.91,3.16c-2.12.13-6.71.31-9.74.31-3.44,0-5.62-.29-7.49-1.37-1.08-.6-2-1.45-2.53-1.45s-1.53,1.76-2.15,3.23l-2.08-2.92a12.39,12.39,0,0,1,2.72-2.49,25,25,0,0,0,1.51-4.48H38.55c.6-1.53,1.27-3.6,1.87-5.63H38.08V84.09h6.07C43.6,85.9,43,88,42.36,89.79h1.06l.47-.11Zm-4.35-6.79c-.28-1.19-1-3-1.4-4.48l2.72-.83c.47,1.4,1.14,3.14,1.51,4.3Zm8,14h-2.7V79.09H60.81V97.33H58v-.81H48.84Zm0-15.55v12H58v-12Zm7.72,10H50.18V83.75h6.38Zm-2.2-6h-2v3.94h2Z"/><path class="cls-2" d="M46.17,110.07a12.29,12.29,0,0,1-7,6.14,7.84,7.84,0,0,0-1.12-1.89,11.61,11.61,0,0,0,4.59-2.69c-2.77.28-3.29.41-3.63.57v0a15.6,15.6,0,0,0-.62-1.81,4,4,0,0,0,1.61-.81,9.63,9.63,0,0,0,1.24-.93,7.5,7.5,0,0,0-2.15.34c-.13-.42-.44-1.35-.65-1.87a2.18,2.18,0,0,0,1.07-.59,14.07,14.07,0,0,0,2.38-2.78l1.74,1.07a16.31,16.31,0,0,1-2.36,2.41l1.58-.08c.46-.47.93-1,1.35-1.48l1.63,1.06a31.73,31.73,0,0,1-4.1,3.61l2.1-.16a8.63,8.63,0,0,0,.52-1.06l1.79.33v-4.19H48.5a5.1,5.1,0,0,0-.39-1l2.44-.57a6.42,6.42,0,0,1,.67,1.58h2.62v6h-1a13.39,13.39,0,0,1,1.71,2v-8.6h5.26l.37-.11,1.78.83c-.54,1.3-1.16,2.57-1.78,3.79a4.23,4.23,0,0,1,1.78,3,2.12,2.12,0,0,1-1,2.07,3.28,3.28,0,0,1-1.27.47,11.27,11.27,0,0,1-1.84,0,4.22,4.22,0,0,0-.67-2c.57,0,1.09,0,1.45,0a1.82,1.82,0,0,0,.6-.13.78.78,0,0,0,.39-.75c0-.52-.52-1.24-1.84-2.23.41-1,.75-1.91,1.06-2.79H57v8.68H54.56v-1.35l-1.45.72a5.62,5.62,0,0,0-.65-1.11c-5.07,1.09-5.9,1.3-6.4,1.61a6.06,6.06,0,0,0-.88-2,1.64,1.64,0,0,0,1-1.63Zm10.13,7.65-1.19,1.4h6.66v1.94H38.32v-1.94h6.6a6.37,6.37,0,0,0-.69-1.2l.8-.2h-4v-1.87h7.52a8.7,8.7,0,0,0-.36-.85l2.92-.65a10.27,10.27,0,0,1,.65,1.5h7.62v1.87Zm-14.38,4.09H58.6v6.35h-3v-.57H44.74v.59H41.92Zm2.82,1.5v.75H55.65v-.75Zm10.91,2.77v-.75H44.74v.75Zm-8.6-8.36a4.6,4.6,0,0,1,.67,1.27l-.49.13h5.23l-.15-.06a11.7,11.7,0,0,0,.83-1.34Zm4.43-11h-2.8v.91h2.8Zm0,2.3h-2.8v.81h2.8ZM51.07,112l-.55-.54.49-.24H48.68v1.22Z"/></svg>