<svg width="525" height="81" viewBox="0 0 525 81" fill="none" xmlns="http://www.w3.org/2000/svg">
<path d="M6.3999 16.2C5.0999 15.1 2.3999 13.4999 0.399902 12.3999L2.79993 9.79993C4.69993 10.6999 7.4999 12.1999 8.8999 13.2999L6.3999 16.2ZM9.79993 20.2C8.29993 23.6 6.49995 27.2999 4.69995 30.4999L1.09998 27.8999C2.69998 25.4999 4.89995 21.3999 6.69995 17.5999L9.79993 20.2ZM8 7.49994C6.8 6.29994 4.09998 4.59994 2.09998 3.49994L4.5 0.799927C6.5 1.79993 9.2 3.29993 10.5 4.39993L8 7.49994ZM24 22.7C25.6 25.2 28.0999 26.7999 31.8999 27.4999C31.0999 28.2999 30 29.7999 29.6 30.8999C25.2 29.7999 22.5999 27.6999 20.7999 24.4999C19.2999 27.4999 16.5 29.5999 11.1 30.9999C10.7 29.9999 9.6999 28.3999 8.8999 27.5999C17.8999 25.5999 18.4 21.9999 18.6 13.9999H22.5C22.4 15.6999 22.4 17.3 22.2 18.7C22.6 20.1 23.0999 21.2999 23.7999 22.3999C24.8999 20.6999 26.0999 18.1 26.7999 16.2L30.8999 17.4999C29.5999 19.6999 28.1 22.2 27 23.7L24 22.7ZM28.1 16.0999C26.5 14.6999 23.2999 12.6999 20.3999 11.0999C18.7999 13.3999 16.2999 14.9999 11.8999 16.0999C11.5999 15.0999 10.5999 13.5999 9.79993 12.8999C18.0999 11.0999 18.5999 7.69995 18.7999 0.199951H22.7C22.6 3.19995 22.3999 5.79993 21.7999 7.89993C24.8999 9.39993 28.5 11.4999 30.5 12.9999L28.1 16.0999ZM13.6 24.0999C12.9 22.3999 11.3 19.6999 10.2 17.5999L13.3999 16.0999C14.5999 18.0999 16.3 20.6999 17 22.2999L13.6 24.0999ZM13.7 9.49994C13.1 7.99994 11.6 5.39995 10.6 3.59995L13.7999 1.89993C14.8999 3.69993 16.4 6.09995 17.1 7.59995L13.7 9.49994ZM30.6 3.29993C29.2 5.39993 27.7 7.59994 26.6 8.99994L23.6 7.89993C24.7 6.29993 26 3.89995 26.7 2.09995L30.6 3.29993Z" fill="#898989"/>
<path d="M66.6002 9.10007C65.1002 18.0001 61.6001 24.7001 56.9001 28.2001C56.2001 27.3001 54.7002 25.7001 53.7002 25.2001C57.5002 22.6001 60.3002 18.1 61.8002 12.3H54.9001V8.30005H63.2002L63.9001 8.20007L66.6002 9.10007ZM83.0002 8.50006C80.6002 10.9001 77.7002 13.7001 75.3002 15.6001C77.8002 19.4001 81.2001 22.5 85.4001 24.3C84.4001 25.2 83.1002 26.8001 82.5002 28.0001C77.8002 25.5001 74.3002 21.5001 71.7002 16.6001V26.1001C71.7002 28.4001 71.3001 29.5 69.9001 30.3C68.6001 31 66.6001 31.2001 63.9001 31.2001C63.7001 30.0001 63.0001 28 62.4001 26.8C64.2001 26.9 66.0002 26.9001 66.6002 26.9001C67.2002 26.9001 67.4001 26.7001 67.4001 26.1001V0.300049H71.6002V8.40005C72.1002 9.90005 72.7001 11.3001 73.4001 12.7001C75.5001 10.7001 77.8002 8.20007 79.3002 6.20007L83.0002 8.50006Z" fill="#898989"/>
<path d="M112.9 13.1V31H109.1V1.40002H121.8V13.1H112.9V13.1ZM112.9 4.20004V5.90002H118.1V4.20004H112.9ZM118.1 10.3V8.50003H112.9V10.3H118.1ZM127.8 23.6V30.4H124.4V23.6H121.2C120.9 25.9 119.8 29.1 117 31C116.4 30.3 115.2 29.3 114.5 28.8C116.6 27.5 117.5 25.3 117.9 23.6H114.6V20.4H118.1V17.9H115.1V14.8H131.1V17.9H128V20.4H131.6V23.6H127.8ZM124.3 20.4V17.9H121.2V20.4H124.3ZM136.9 26.5C136.9 28.5 136.5 29.6 135.3 30.2C134.1 30.9 132.4 31 129.9 31C129.8 29.9 129.2 28.1 128.7 27.1C130.2 27.2 131.8 27.2 132.3 27.1C132.8 27.1 133 26.9 133 26.4V13.2H123.9V1.40002H136.9V26.5ZM127.7 4.20004V5.90002H133.1V4.20004H127.7ZM133.1 10.3V8.50003H127.7V10.4H133.1V10.3Z" fill="#898989"/>
<path d="M166.1 15.7999C164.9 14.7999 162.5 13.2999 160.7 12.3999L162.9 9.59995C164.7 10.3999 167.1 11.7 168.4 12.7L166.1 15.7999ZM177.4 23.9999V25.9999C177.4 27.2999 177.7 27.3999 179.6 27.3999H185.6C187.1 27.3999 187.4 26.8999 187.6 23.9999C188.4 24.4999 189.8 25.0999 190.7 25.2999C190.3 29.3999 189.2 30.5999 185.9 30.5999H179.3C175.2 30.5999 174 29.5999 174 25.9999V19.4999C173 20.5999 172 21.5999 171 22.3999C170.6 21.7999 169.8 20.9 169.1 20.2C167.8 23.5 166.4 26.9999 164.9 30.0999L161.4 27.7999C162.8 25.3999 164.6 21.3 166.1 17.7L168.4 19.3999C170.5 17.9999 172.6 15.4999 174 12.9999H169V9.49994H174.4V6.99994H170.3V3.49994H174.4V0.199951H178.2V3.49994H182.8V0.199951H186.7V3.49994H191V6.99994H186.7V9.49994H191.9V12.9999H186.8C188.1 15.2999 190.2 17.4 192.3 18.7C191.4 19.4 190.1 20.7999 189.6 21.7999C188.5 20.9999 187.5 19.9999 186.5 18.8999V23.9999H177.4V23.9999ZM167.7 7.09995C166.6 6.09995 164.3 4.59994 162.5 3.49994L164.8 0.799927C166.5 1.69993 168.9 3.09995 170.1 4.09995L167.7 7.09995ZM177.9 13.0999C177.5 14.0999 177 14.9999 176.5 15.8999H184.2C183.7 14.9999 183.2 13.9999 182.8 13.0999H177.9ZM183.3 18.5999H177.4V21.2H183.3V18.5999ZM178.2 9.49994H182.8V6.99994H178.2V9.49994Z" fill="#898989"/>
<path d="M227.5 8.70001H214.6V5.60001H220.1C219.6 4.30001 218.7 2.69999 218 1.39999L221.1 0C222 1.4 223 3.19999 223.5 4.39999L221.3 5.60001H227.6V8.70001H227.5ZM226.1 11C229.3 9.2 229.7 6.89999 229.7 4.79999V1.29999H240.8V8.5C240.8 9.5 240.9 9.89999 241.3 9.89999H242.6C243.1 9.89999 243.8 9.80001 244.2 9.70001C244.3 10.7 244.4 12 244.5 13C244 13.2 243.3 13.2 242.6 13.2H240.9C237.8 13.2 237.2 11.8 237.2 8.5V5H233.2C233.2 8.2 232.3 11.9 228.1 14.1C227.7 13.5 226.7 12.3 225.9 11.7V13.3H215.8V10.3H225.9V11H226.1ZM226.2 17.6H216V14.6H226.2V17.6ZM243.9 15.3C242.8 19.4 241 22.5 238.6 24.9C240.6 26 242.9 26.8 245.4 27.3C244.6 28.1 243.5 29.8 243 30.8C240.1 30.1 237.5 29 235.3 27.6C233.1 29.1 230.5 30.2 227.6 30.9C227.3 30.1 226.7 28.9 226.1 28V29.2H219.3V30.6H216V19.2H226.1V27.4C228.3 26.9 230.4 26.1 232.2 25.1C230.5 23.4 229 21.3 227.9 18.9L230 18.1H226.9V14.4H240.7L241.4 14.2L243.9 15.3ZM222.7 22.3H219.3V26H222.7V22.3ZM231.4 18.1C232.4 19.9 233.7 21.4 235.3 22.8C236.8 21.5 237.9 19.9 238.8 18.1H231.4Z" fill="#898989"/>
<path d="M281.8 17.1C282.3 18.3 282.9 19.8 283.2 20.7L281.9 21.2H282.4V24.4C282.4 27 281.7 29.5 277.6 30.9C277.3 30.3 276.5 29.2 275.9 28.7C277.6 28.2 278.6 27.5 279.1 26.7H275.4V21.7H277.8V24.5H279.8V24.2V21.1H281.3C281.2 20.9 281.2 20.6 281.1 20.3C276.6 20.9 275.8 21 275.2 21.3C275.1 20.8 274.8 19.7 274.5 19.1C275 19 275.6 18.7 276.2 18.2C276.5 18 277 17.6 277.6 17C276 17.1 275.5 17.3 275.3 17.4C275.2 16.9 274.8 15.8 274.5 15.2C274.9 15.1 275.3 15 275.6 14.6C275.9 14.3 276.9 13.4 277.6 12.3H273.2V31.2H269.4V1.60004H282.2V12.4H278.9L280.1 13.1C279.4 14 278.6 14.9 277.8 15.5L279.5 15.4C279.9 14.9 280.3 14.4 280.7 13.9L282.6 15.2C281.3 16.6 279.8 17.9 278.3 19L280.4 18.8C280.3 18.4 280.1 18.1 280 17.7L281.8 17.1ZM273.1 4.10004V5.70004H278.4V4.10004H273.1ZM273.1 9.50003H278.4V8.00003H273.1V9.50003ZM297.3 26.5C297.3 28.4 297 29.5 295.9 30.1C294.8 30.8 293.3 30.8 291 30.8C290.9 29.9 290.6 28.6 290.2 27.6H288.6V26.7H286.6V30.6H283.9V21.2H284C283.8 20.7 283.5 19.7 283.3 19.1C283.8 19.1 284.4 18.7 285.1 18.2C285.4 18 285.9 17.6 286.5 17C284.9 17.1 284.4 17.3 284.2 17.4C284.1 16.9 283.7 15.7 283.4 15.2C283.8 15.1 284.2 14.9 284.5 14.6C284.8 14.3 285.8 13.4 286.5 12.2H284.5V1.40002H297.5V26.5H297.3ZM291.1 27.1C291.9 27.1 292.6 27.1 292.9 27.1C293.3 27.1 293.5 26.9 293.5 26.5V12.2H287.5L288.8 12.9C288.1 13.8 287.4 14.6 286.6 15.3L288.2 15.2C288.7 14.7 289.2 14.1 289.6 13.6L291.5 15C290.2 16.4 288.7 17.8 287.2 18.9L289.2 18.7C289 18.3 288.9 18 288.7 17.6L290.6 17C291.2 18.2 291.9 19.7 292.2 20.6L290.2 21.4C290.1 21.1 290 20.7 289.9 20.3C286.5 20.7 285.2 21 284.5 21.1H286.7V24.5H288.7V21.7H291.2V27.1H291.1ZM288 4.10004V5.70004H293.5V4.10004H288ZM288 9.50003H293.5V8.00003H288V9.50003Z" fill="#898989"/>
<path d="M322.8 24.2H328.1V8.69998H323.7V5.69998C326.1 5.19998 327.8 4.59998 329.4 3.59998H333V24.1H337.6V28H322.9V24.2H322.8Z" fill="#898989"/>
<path d="M375.1 8.89993C374.2 7.89993 372.8 7.09995 371.3 7.09995C368.5 7.09995 366.2 9.19993 366 15.2999C367.3 13.6999 369.4 12.7 371 12.7C375.1 12.7 378 15.0999 378 20.3999C378 25.3999 374.5 28.5999 370.3 28.5999C365.6 28.5999 361.5 24.9 361.5 16.2C361.5 7.09995 366 3.19995 371 3.19995C374 3.19995 376.2 4.49994 377.6 5.99994L375.1 8.89993ZM373.6 20.4999C373.6 17.5999 372.2 16.2 370.1 16.2C368.8 16.2 367.3 16.8999 366.1 18.7999C366.6 23.2999 368.2 24.9999 370.3 24.9999C372.1 24.9999 373.6 23.3999 373.6 20.4999Z" fill="#898989"/>
<path d="M401.2 15.7999C401.2 7.29993 404.5 3.19995 409.5 3.19995C414.5 3.19995 417.8 7.39993 417.8 15.7999C417.8 24.1999 414.5 28.5999 409.5 28.5999C404.5 28.5999 401.2 24.2999 401.2 15.7999ZM413.2 15.7999C413.2 8.99993 411.6 6.99994 409.5 6.99994C407.4 6.99994 405.8 8.99993 405.8 15.7999C405.8 22.6999 407.4 24.7999 409.5 24.7999C411.6 24.7999 413.2 22.6999 413.2 15.7999Z" fill="#898989"/>
<path d="M469.3 26.9999C469.3 28.9999 468.8 29.7999 467.6 30.3999C466.3 30.9999 464.4 30.9999 461.6 30.9999C461.4 29.9999 460.9 28.4999 460.3 27.5999C462 27.6999 463.9 27.7 464.5 27.7C465.1 27.7 465.3 27.4999 465.3 26.8999V16.0999H447.6C447.4 21.0999 446.5 27.0999 443.5 31.0999C442.8 30.3999 441.2 29.0999 440.3 28.5999C443.4 24.2999 443.7 17.8999 443.7 13.0999V1.69995H469.2V26.9999H469.3ZM447.7 5.39993V7.59995H454.4V5.39993H447.7ZM447.7 12.9999H454.4V10.7H447.7V12.9999ZM453.1 26.5999V28.3999H449.6V17.5999H463.2V26.5999H453.1ZM453.1 20.4999V23.5999H459.4V20.4999H453.1ZM458.2 5.39993V7.59995H465.4V5.39993H458.2ZM465.4 12.9999V10.7H458.2V12.9999H465.4Z" fill="#898989"/>
<path d="M524.7 24H513.4V31.1H509.3V24H494.4V20.2H499.6V11.5H509.3V7.5H502.2C500.8 9.8 499.3 12 497.7 13.5C496.9 12.8 495.3 11.5 494.3 11C497.3 8.5 499.8 4.3 501.2 0L505.2 1C504.9 1.9 504.5 2.80001 504.1 3.70001H522.8V7.5H513.3V11.5H522V15.1H513.3V20.1H524.6V24H524.7ZM509.3 20.2V15.2H503.6V20.2H509.3Z" fill="#898989"/>
<path d="M54.6001 76.7H84.4V79.7999H54.6001V76.7ZM65.6001 66.3999C65.5001 65.8999 65.3001 65.3999 65.0001 64.8999C57.9001 66.2999 56.8001 66.4999 56.0001 66.8999C55.9001 66.1999 55.3 64.9999 54.9 64.4999C55.5 64.1999 56.3 63.5999 56.3 62.2999V50.7H68.2001V60.2999H65.8C66.8 61.8999 67.8001 63.8999 68.2001 65.2999L65.6001 66.3999ZM69.5001 59.4999C69.9001 57.8999 70.2 55.3999 70.4 53.2999H69.5001V50.7H83.7001V53.2999H78.6001C78.5001 54.4999 78.5 55.6 78.3 56.7H84.0001V59.4999H77.8C77.7 59.6999 77.7001 59.8999 77.6001 60.0999H79.2001V62.7C79.2001 63.4 79.3 63.3999 79.8 63.3999H81.3C81.8 63.3999 82.0001 63.0999 82.0001 61.0999C82.6001 61.4999 83.7001 61.8999 84.5001 62.0999C84.2001 65.0999 83.5001 65.8999 81.7001 65.8999H79.3C76.8 65.8999 76.2001 65.0999 76.2001 62.7999C75.0001 64.4999 73.1001 65.7999 70.2001 66.7999H80.2001V75.5999H58.9V66.7999H69.8C69.4 65.9999 68.7001 64.7999 68.0001 64.2999C71.6001 63.2999 73.4 61.7999 74.3 59.5999H69.5001V59.4999ZM59.8 52.9999V54.2999H65.2001V52.9999H59.8ZM59.8 57.8999H65.2001V56.4999H59.8V57.8999ZM63.9 62.3999C63.7 61.9999 63.4001 61.4999 63.2001 61.0999L65.4 60.2999H59.7001V63.0999L63.9 62.3999ZM76.5001 68.7999H62.8V70.2999H76.5001V68.7999ZM76.5001 72.0999H62.8V73.7H76.5001V72.0999ZM75.2001 56.7C75.3001 55.7 75.4001 54.5999 75.5001 53.2999H73.5001C73.3001 54.3999 73.2001 55.5 73.0001 56.7H75.2001Z" fill="#898989"/>
<path d="M107.2 78.5C109.1 76.7 110.2 74 110.7 71.1L114.2 72.1C113.6 75.3 112.6 78.6 110.4 80.6L107.2 78.5ZM137.7 66.8C137.7 66.8 137.7 67.8 137.6 68.4C137.2 75.3 136.7 78.3 135.8 79.3C135.1 80.1 134.3 80.4 133.3 80.6C132.4 80.7 130.9 80.8 129.3 80.7C129.2 79.6 128.8 78.1 128.2 77.1C129.5 77.2 130.7 77.3 131.3 77.2C131.8 77.2 132.1 77.2 132.4 76.8C132.9 76.2 133.2 74.5 133.5 70.2H111.5V51.1H135.2V54.5H125.2V56.6H134V59.7H125.2V61.8H134V64.8H125.2V66.9H137.7V66.8ZM115.4 54.4V56.5H121.4V54.4H115.4ZM121.4 59.6H115.4V61.7H121.4V59.6ZM115.4 66.8H121.4V64.7H115.4V66.8ZM118.8 72C119.5 74.2 120 76.9 120.1 78.8L116.6 79.4C116.6 77.5 116.1 74.7 115.5 72.6L118.8 72ZM124.2 71.7C125.1 73.6 125.9 76.1 126.2 77.7L123 78.6C122.8 77 122 74.4 121.2 72.5L124.2 71.7ZM128.7 76.6C128.3 75.3 127.4 73.3 126.4 71.9L129.2 70.9C130.2 72.3 131.3 74.2 131.7 75.5L128.7 76.6Z" fill="#898989"/>
<path d="M171.5 51.1001C170.6 53.4001 169.5 55.7001 168.4 57.9001V80.7001H164.6V63.8C163.9 64.8 163.1 65.7001 162.4 66.5001C162 65.5001 160.9 63.3001 160.3 62.4001C163.3 59.4001 166.2 54.8001 167.8 50.0001L171.5 51.1001ZM180.2 59.8C180.3 60.7 180.5 62.1001 180.7 62.9001C173.8 64.5001 172.6 64.9001 171.8 65.4001C171.6 64.4001 171.1 62.7 170.7 61.8C171.3 61.6 171.8 61.3001 171.8 60.2001V50.1001H175.6V53.8H180.1V57.1001H175.6V60.8L180.2 59.8ZM185.3 64.6001C184.3 64.6001 183.6 64.5 183.1 64.3C182.7 65 182.2 65.8001 181.8 66.5001H190.1V80.5001H186.1V79.5001H176.3V80.6001H172.6V66.5001H177.9C178.3 65.4001 178.6 64.3001 178.8 63.4001L183 64.2001C181.7 63.6001 181.4 62.4001 181.4 60.1001V49.8H185.2V53.6001H191.3V56.9001H185.2V60.1001C185.2 61.1001 185.3 61.3 186.1 61.3H188.2C188.9 61.3 189 60.8001 189.1 58.1001C189.9 58.7001 191.3 59.3001 192.4 59.5001C192 63.4001 191.1 64.5001 188.6 64.5001H185.3V64.6001ZM186.1 69.6001H176.3V71.6001H186.1V69.6001ZM186.1 76.5001V74.4001H176.3V76.5001H186.1Z" fill="#898989"/>
<path d="M241.8 69.2999C240.9 68.2999 239.2 66.7999 237.5 65.4999C236.8 66.5999 236.1 67.5999 235.3 68.2999C234.7 67.7999 233.6 67.0999 232.7 66.5999C235.6 70.4999 240.4 73.9999 245.3 75.7999C244.3 76.5999 243.1 78.2999 242.4 79.3999C238.4 77.4999 234.7 74.5999 231.7 70.9999V80.5999H227.6V71.2C224.6 74.7 220.9 77.5999 217 79.3999C216.4 78.3999 215.1 76.8999 214.2 75.9999C219.6 73.8999 224.7 69.7999 227.6 65.2999V57.7H215.6V53.7999H227.6V49.7H231.7V53.7999H244.2V57.7H231.7V65.0999C231.9 65.3999 232 65.5999 232.2 65.8999C234.3 63.9999 235.7 61.0999 236.4 57.8999L240.2 58.5999C239.9 59.7999 239.5 60.9999 239.1 62.0999C241 63.5999 243.3 65.2999 244.5 66.3999L241.8 69.2999ZM224.7 58.7C224.4 59.9 224 61.0999 223.5 62.2999C224.7 63.2999 225.9 64.4 226.7 65.2L224.1 67.8999C223.6 67.2999 222.8 66.3999 221.9 65.5999C220.8 67.3999 219.6 68.8999 218.1 70.0999C217.5 69.3999 215.9 68.0999 215.1 67.4999C218 65.3999 220 61.8999 221 57.8999L224.7 58.7Z" fill="#898989"/>
<path d="M297.9 51.3999V53.7999H285.1V54.8999H295.2V57.2H271.3V54.8999H281.1V53.7999H268.6V51.3999H281.1V49.7H285.1V51.3999H297.9ZM285.1 77.2999H297.7V79.8999H268.9V77.2999H281.2V76.2H272.1V73.8999H281.2V72.8999C275.5 72.9999 274.6 73.0999 273.8 73.3999C273.7 72.8999 273.3 71.5999 273 70.9999C273.5 70.8999 274.1 70.7999 274.7 70.5999C275.1 70.4999 276 70.0999 276.9 69.5999H272.4V68.9999H269V64.0999H297.5V68.9999H293.8V66.4999H272.5V67.4999H293.7V69.5999H291.4C292.9 70.4999 294.2 71.3999 295.1 72.0999L292.9 73.8999H294.9V76.2H285.2V77.2999H285.1ZM294.2 58.2V63.2H272.5V58.2H294.2ZM290.3 60.0999H276.1V61.2999H290.3V60.0999ZM281.2 69.5999C280.4 70.0999 279.7 70.4999 279 70.8999L288.1 70.7999C287.5 70.3999 286.8 70.0999 286.3 69.7999L286.5 69.7H281.2V69.5999ZM285.1 73.9999H292.5C292.1 73.5999 291.6 73.1999 291 72.7999L285.1 72.9999V73.9999Z" fill="#898989"/>
<path d="M322.8 73.9001H328.1V58.4001H323.7V55.4001C326.1 54.9001 327.8 54.3 329.4 53.3H333V73.8H337.6V77.7001H322.9V73.9001H322.8Z" fill="#898989"/>
<path d="M360.8 74.9001L363 71.8C364.4 73.2 366.1 74.3 368.4 74.3C370.9 74.3 372.7 72.7 372.7 69.8C372.7 67 371 65.4001 368.6 65.4001C367.1 65.4001 366.4 65.8001 364.9 66.7001L362.7 65.2001L363.4 53.3H376.5V57.4001H367.6L367.1 62.6001C368.1 62.1001 368.9 61.9001 370 61.9001C374.1 61.9001 377.5 64.3001 377.5 69.7001C377.5 75.2001 373.5 78.3 368.9 78.3C365.2 78.3 362.6 76.7001 360.8 74.9001Z" fill="#898989"/>
<path d="M401.2 65.5C401.2 57 404.5 52.9 409.5 52.9C414.5 52.9 417.8 57.1 417.8 65.5C417.8 73.9 414.5 78.3 409.5 78.3C404.5 78.3 401.2 73.9 401.2 65.5ZM413.2 65.5C413.2 58.7 411.6 56.7 409.5 56.7C407.4 56.7 405.8 58.7 405.8 65.5C405.8 72.4 407.4 74.5 409.5 74.5C411.6 74.5 413.2 72.3 413.2 65.5Z" fill="#898989"/>
<path d="M469.3 76.6001C469.3 78.6001 468.8 79.4001 467.6 80.0001C466.3 80.6001 464.4 80.6001 461.6 80.6001C461.4 79.6001 460.9 78.1001 460.3 77.2001C462 77.3001 463.9 77.3 464.5 77.3C465.1 77.3 465.3 77.1001 465.3 76.5001V65.7001H447.6C447.4 70.7001 446.5 76.7001 443.5 80.7001C442.8 80.0001 441.2 78.7001 440.3 78.2001C443.4 73.9001 443.7 67.5001 443.7 62.7001V51.3H469.2V76.6001H469.3ZM447.7 55.0001V57.2001H454.4V55.0001H447.7ZM447.7 62.6001H454.4V60.3H447.7V62.6001ZM453.1 76.2001V78.0001H449.6V67.2001H463.2V76.2001H453.1ZM453.1 70.1001V73.2001H459.4V70.1001H453.1ZM458.2 55.0001V57.2001H465.4V55.0001H458.2ZM465.4 62.6001V60.3H458.2V62.6001H465.4Z" fill="#898989"/>
<path d="M524.7 73.6H513.4V80.7H509.3V73.6H494.4V69.8H499.6V61.1H509.3V57.1H502.2C500.8 59.4 499.3 61.6 497.7 63.1C496.9 62.4 495.3 61.1 494.3 60.6C497.3 58.1 499.8 53.9 501.2 49.6L505.2 50.6C504.9 51.5 504.5 52.4 504.1 53.3H522.8V57.1H513.3V61.1H522V64.7H513.3V69.7H524.6V73.6H524.7ZM509.3 69.9V64.9H503.6V69.9H509.3Z" fill="#898989"/>
<path d="M27 52.9H0V79.9H27V52.9Z" fill="#53A0C1"/>
<path d="M0 70.8V52.9H17.8999L0 70.8Z" fill="#FAC02D"/>
</svg>
